<svg width="150" height="150" xmlns="http://www.w3.org/2000/svg" xmlns:xlink="http://www.w3.org/1999/xlink" class="empty-avatar"><defs><path id="a" d="M0 0h150v150H0z"/></defs><g fill="none" fill-rule="evenodd"><mask id="b" fill="#fff"><use xlink:href="#a"/></mask><use class="background" fill="#CCC" xlink:href="#a"/><path d="M75.261 91c-24.683 0-44.71 20.266-44.71 45.243 0 8.34 6.662 15.081 14.903 15.081h59.615c8.24 0 14.903-6.741 14.903-15.08 0-24.978-20.027-45.244-44.71-45.244zm20.07-26.624c0 12.357-8.906 22.377-19.89 22.377-10.985 0-19.89-10.02-19.89-22.377C55.55 52.02 64.455 42 75.44 42c10.984 0 19.89 10.02 19.89 22.376z" class="silouette" fill="#FFF" opacity=".52" mask="url(#b)"/></g></svg>